<?xml version="1.0" encoding="utf-8"?>
<!-- Generator: Adobe Illustrator 15.1.0, SVG Export Plug-In . SVG Version: 6.00 Build 0)  -->
<!DOCTYPE svg PUBLIC "-//W3C//DTD SVG 1.1//EN" "http://www.w3.org/Graphics/SVG/1.1/DTD/svg11.dtd">
<svg version="1.1" id="Layer_1" xmlns="http://www.w3.org/2000/svg" xmlns:xlink="http://www.w3.org/1999/xlink" x="0px" y="0px"
	 width="300px" height="300px" viewBox="0 0 300 300" enable-background="new 0 0 300 300" xml:space="preserve">
<g>
	<path fill="#31BDB9" d="M1981-405.992C1981-488.277,2047.71-555,2130-555c82.291,0,149,66.723,149,149.008
		C2279-323.703,2212.291-257,2130-257C2047.71-257,1981-323.703,1981-405.992z M2077.549-459.763
		c14.242,1.953,32.867,3.028,52.451,3.028c19.585,0,38.229-1.075,52.452-3.028c18.312-2.496,21.75-5.359,22.313-6.02
		c-0.052-0.051-0.103-0.116-0.199-0.182v-0.018c-0.033-0.034-0.066-0.049-0.101-0.1h-0.018c-0.032-0.033-0.082-0.066-0.132-0.099
		l-0.017-0.017c-0.05-0.033-0.1-0.067-0.149-0.116c0,0-0.016,0-0.032-0.017c-0.052-0.033-0.114-0.082-0.165-0.116
		c-0.018,0-0.032-0.017-0.049-0.033c-0.051-0.032-0.117-0.065-0.197-0.116c0,0-0.018-0.016-0.034-0.016
		c-0.083-0.051-0.149-0.1-0.231-0.148c0,0-0.033-0.017-0.049-0.017c-0.084-0.05-0.185-0.101-0.281-0.147
		c-0.017-0.018-0.033-0.018-0.033-0.018c-0.116-0.066-0.23-0.116-0.365-0.182l0,0c-0.381-0.183-0.843-0.381-1.372-0.58
		c-0.017-0.016-0.05-0.033-0.05-0.033c-0.164-0.064-0.331-0.115-0.496-0.182c-0.049-0.017-0.1-0.033-0.148-0.049
		c-0.148-0.051-0.299-0.1-0.446-0.166c-0.065-0.017-0.148-0.033-0.214-0.066c-0.149-0.049-0.282-0.1-0.448-0.149
		c-0.083-0.017-0.163-0.049-0.247-0.082c-0.148-0.032-0.297-0.099-0.464-0.132c-0.082-0.033-0.198-0.066-0.296-0.1
		c-0.149-0.032-0.315-0.082-0.465-0.131c-0.115-0.033-0.23-0.066-0.348-0.101c-0.166-0.049-0.314-0.082-0.496-0.131
		c-0.115-0.034-0.248-0.065-0.365-0.101c-0.181-0.049-0.348-0.099-0.527-0.131c-0.133-0.033-0.266-0.065-0.413-0.115
		c-0.183-0.033-0.363-0.084-0.547-0.133c-0.147-0.033-0.3-0.065-0.462-0.1c-0.184-0.05-0.383-0.1-0.579-0.132
		c-0.165-0.05-0.315-0.083-0.479-0.116c-0.216-0.05-0.414-0.084-0.629-0.133c-0.164-0.033-0.348-0.066-0.527-0.116
		c-0.219-0.032-0.433-0.083-0.664-0.133c-0.182-0.032-0.363-0.065-0.562-0.115c-0.215-0.032-0.465-0.082-0.696-0.132
		c-0.196-0.033-0.396-0.066-0.596-0.1c-0.248-0.049-0.494-0.1-0.727-0.133c-0.217-0.049-0.432-0.082-0.662-0.131
		c-0.247-0.035-0.496-0.084-0.76-0.117c-0.233-0.049-0.465-0.082-0.696-0.115c-0.265-0.049-0.545-0.1-0.825-0.133
		c-0.23-0.049-0.466-0.082-0.713-0.115c-0.298-0.051-0.596-0.1-0.895-0.133c-0.248-0.051-0.496-0.082-0.742-0.115
		c-0.331-0.051-0.68-0.1-1.012-0.149c-0.23-0.034-0.463-0.067-0.691-0.083c-5.989-0.826-12.753-1.488-20.031-1.984
		c-1.24-0.082-2.498-0.166-3.771-0.231c-0.299-0.032-0.611-0.032-0.928-0.065c-8.731-0.48-18.111-0.746-27.723-0.746
		c-1.225,0-2.448,0-3.656,0.018c-16.523,0.115-32.188,0.992-44.908,2.516c-1.322,0.147-2.629,0.312-3.888,0.494
		c-0.116,0-0.231,0.018-0.347,0.034c-0.463,0.065-0.926,0.132-1.374,0.199c-0.214,0.032-0.413,0.065-0.628,0.099
		c-0.348,0.051-0.695,0.1-1.01,0.148c-0.231,0.033-0.43,0.066-0.646,0.1c-0.313,0.051-0.612,0.102-0.91,0.148
		c-0.214,0.033-0.413,0.066-0.627,0.101c-0.282,0.05-0.579,0.099-0.862,0.147c-0.197,0.035-0.379,0.066-0.578,0.101
		c-0.266,0.05-0.529,0.099-0.793,0.149c-0.199,0.033-0.381,0.066-0.562,0.099c-0.249,0.05-0.514,0.099-0.745,0.147
		c-0.182,0.033-0.347,0.067-0.528,0.1c-0.232,0.05-0.463,0.102-0.713,0.148c-0.147,0.033-0.312,0.067-0.479,0.101
		c-0.217,0.049-0.447,0.099-0.663,0.147c-0.147,0.033-0.298,0.066-0.446,0.101c-0.215,0.05-0.431,0.099-0.645,0.147
		c-0.133,0.033-0.266,0.067-0.398,0.1c-0.197,0.05-0.396,0.1-0.611,0.148c-0.115,0.032-0.248,0.049-0.363,0.082
		c-0.199,0.065-0.381,0.1-0.579,0.166c-0.099,0.016-0.214,0.049-0.313,0.082c-0.197,0.051-0.381,0.1-0.58,0.148
		c-0.082,0.033-0.166,0.05-0.264,0.082c-0.197,0.05-0.38,0.117-0.579,0.166c-0.065,0.017-0.132,0.05-0.182,0.066
		c-0.231,0.065-0.447,0.131-0.646,0.197c0,0-0.05,0.018-0.082,0.018c-0.463,0.147-0.894,0.297-1.273,0.445l0,0
		c-0.184,0.067-0.364,0.133-0.546,0.2c-0.033,0.017-0.067,0.033-0.099,0.05c-0.134,0.049-0.267,0.1-0.397,0.164
		c-0.033,0-0.066,0.034-0.116,0.051c-0.115,0.049-0.215,0.082-0.314,0.131c-0.049,0.018-0.1,0.051-0.133,0.067
		c-0.099,0.033-0.182,0.082-0.281,0.115c-0.032,0.032-0.065,0.05-0.115,0.065c-0.083,0.033-0.148,0.084-0.232,0.117
		c-0.031,0.016-0.064,0.032-0.115,0.066c-0.065,0.033-0.131,0.064-0.196,0.1c-0.034,0.016-0.067,0.032-0.101,0.049
		c-0.065,0.051-0.115,0.084-0.182,0.117c-0.018,0.016-0.05,0.032-0.083,0.049c-0.05,0.033-0.099,0.066-0.149,0.1
		c-0.033,0.016-0.049,0.033-0.065,0.05c-0.05,0.017-0.101,0.05-0.147,0.083c-0.018,0.016-0.033,0.033-0.051,0.049
		c-0.05,0.018-0.083,0.051-0.115,0.083c-0.017,0.017-0.033,0.017-0.05,0.032c-0.034,0.033-0.065,0.05-0.101,0.083
		c-0.016,0.017-0.016,0.017-0.032,0.034c-0.033,0.015-0.067,0.049-0.099,0.082h-0.018c-0.016,0.033-0.05,0.066-0.083,0.099
		c-0.016,0.017-0.032,0.052-0.065,0.067C2055.798-465.138,2059.221-462.259,2077.549-459.763z M2204.566-423.309
		c-0.033-0.032-0.066-0.067-0.101-0.099h-0.018c-0.032-0.033-0.082-0.066-0.132-0.1c0-0.018-0.017-0.018-0.017-0.018
		c-0.05-0.032-0.1-0.083-0.149-0.115l-0.032-0.018c-0.052-0.031-0.114-0.082-0.165-0.115c-0.018,0-0.032-0.018-0.049-0.033
		c-0.051-0.033-0.117-0.066-0.197-0.115c0-0.018-0.018-0.018-0.034-0.018c-0.083-0.049-0.149-0.1-0.231-0.148
		c0,0-0.033-0.017-0.049-0.017c-0.084-0.049-0.185-0.099-0.281-0.149c-0.017-0.015-0.033-0.015-0.033-0.015
		c-0.116-0.067-0.23-0.116-0.365-0.183l0,0c-0.381-0.182-0.843-0.381-1.372-0.596l-0.065-0.018
		c-0.147-0.066-0.314-0.116-0.479-0.182c-0.049-0.017-0.101-0.033-0.147-0.049c-0.149-0.051-0.299-0.117-0.447-0.166
		c-0.065-0.017-0.148-0.051-0.215-0.066c-0.148-0.051-0.281-0.1-0.447-0.148c-0.083-0.033-0.163-0.05-0.247-0.082
		c-0.149-0.051-0.297-0.101-0.464-0.134c-0.082-0.032-0.198-0.065-0.296-0.101c-0.149-0.049-0.315-0.098-0.464-0.131
		c-0.116-0.033-0.231-0.065-0.349-0.1c-0.166-0.05-0.315-0.1-0.495-0.133c-0.117-0.033-0.248-0.066-0.365-0.1
		c-0.182-0.049-0.349-0.1-0.528-0.133c-0.132-0.033-0.265-0.065-0.413-0.115c-0.184-0.033-0.363-0.082-0.547-0.133
		c-0.146-0.033-0.299-0.065-0.462-0.1c-0.183-0.05-0.382-0.1-0.579-0.148c-0.165-0.033-0.314-0.065-0.479-0.099
		c-0.217-0.05-0.414-0.083-0.629-0.133c-0.035,0-0.051-0.017-0.051-0.017c9.857-2.101,11.479-4.037,11.661-4.316v-29.074
		c-3.423,1.703-9.495,3.407-20.097,4.963c-14.641,2.115-34.074,3.291-54.734,3.291c-20.659,0-40.096-1.176-54.734-3.291
		c-10.619-1.556-16.673-3.26-20.097-4.98v29.046c0.166,0.28,1.737,2.231,11.711,4.349c-0.032,0.018-0.083,0.033-0.131,0.033
		c-0.216,0.051-0.447,0.1-0.663,0.148c-0.148,0.033-0.298,0.066-0.445,0.1c-0.216,0.049-0.432,0.1-0.646,0.148
		c-0.132,0.033-0.265,0.065-0.397,0.1c-0.199,0.05-0.397,0.1-0.611,0.148c-0.116,0.035-0.25,0.051-0.364,0.084
		c-0.199,0.049-0.38,0.1-0.579,0.148c-0.1,0.033-0.214,0.066-0.314,0.1c-0.196,0.049-0.379,0.1-0.578,0.149
		c-0.082,0.033-0.166,0.05-0.265,0.083c-0.198,0.051-0.38,0.115-0.579,0.165c-0.065,0.017-0.132,0.034-0.182,0.05
		c-0.23,0.083-0.447,0.148-0.645,0.215c0,0-0.051,0.018-0.084,0.018c-0.461,0.148-0.893,0.297-1.272,0.447l0,0
		c-0.183,0.065-0.364,0.131-0.546,0.197c-0.033,0.018-0.067,0.033-0.1,0.049c-0.133,0.051-0.266,0.101-0.396,0.149
		c-0.033,0.017-0.066,0.05-0.116,0.067c-0.116,0.049-0.215,0.082-0.315,0.131c-0.049,0.018-0.099,0.035-0.131,0.066
		c-0.1,0.032-0.183,0.082-0.281,0.116c-0.033,0.017-0.066,0.05-0.116,0.065c-0.083,0.033-0.147,0.082-0.231,0.115
		c-0.033,0.018-0.065,0.035-0.115,0.051c-0.066,0.05-0.133,0.082-0.197,0.115c-0.034,0.017-0.067,0.033-0.102,0.049
		c-0.064,0.033-0.115,0.082-0.181,0.1c-0.017,0.034-0.05,0.051-0.083,0.066c-0.05,0.033-0.099,0.066-0.148,0.1
		c-0.033,0.018-0.049,0.033-0.049,0.033c-0.066,0.033-0.117,0.066-0.166,0.1c-0.017,0.016-0.033,0.033-0.05,0.033
		c-0.05,0.033-0.083,0.066-0.114,0.1c-0.018,0-0.035,0.017-0.051,0.032c-0.033,0.034-0.066,0.05-0.1,0.083
		c0,0-0.016,0.016-0.033,0.016c-0.033,0.033-0.066,0.066-0.1,0.101h-0.017c-0.016,0.032-0.05,0.065-0.083,0.082
		c-0.016,0.032-0.033,0.05-0.066,0.083c0.562,0.645,3.986,3.523,22.313,6.021c14.242,1.951,32.867,3.025,52.451,3.025
		c19.585,0,38.228-1.074,52.452-3.025c18.311-2.498,21.75-5.377,22.312-6.021C2204.715-423.16,2204.664-423.226,2204.566-423.309
		L2204.566-423.309z M2130-367.123c-20.659,0-40.096-1.174-54.734-3.289c-10.619-1.557-16.673-3.277-20.097-4.979v29.043
		c0.215,0.35,2.746,3.475,22.331,6.17c14.225,1.951,32.866,3.023,52.5,3.023c19.585,0,38.229-1.072,52.452-3.023
		c19.534-2.662,22.147-5.756,22.379-6.119v-29.078c-3.423,1.688-9.495,3.406-20.097,4.963
		C2170.096-368.297,2150.66-367.123,2130-367.123z M2204.566-380.635c-0.033-0.035-0.066-0.066-0.101-0.1h-0.018
		c-0.032-0.035-0.082-0.068-0.132-0.1c0-0.016-0.017-0.016-0.017-0.016c-0.05-0.051-0.1-0.084-0.149-0.117l-0.032-0.018
		c-0.052-0.033-0.114-0.082-0.165-0.115c-0.018-0.018-0.032-0.018-0.049-0.033c-0.051-0.031-0.117-0.064-0.197-0.115
		c0-0.018-0.018-0.018-0.034-0.033c-0.083-0.033-0.149-0.084-0.231-0.133c0,0-0.033-0.016-0.049-0.016
		c-0.084-0.049-0.185-0.1-0.281-0.148c-0.017-0.018-0.033-0.018-0.033-0.018c-0.116-0.066-0.23-0.115-0.365-0.18l0,0
		c-0.381-0.186-0.843-0.385-1.372-0.598l-0.065-0.018c-0.147-0.066-0.314-0.135-0.479-0.184c-0.049-0.016-0.101-0.031-0.147-0.047
		c-0.149-0.066-0.299-0.117-0.447-0.168c-0.065-0.016-0.148-0.049-0.215-0.066c-0.148-0.047-0.281-0.098-0.447-0.148
		c-0.083-0.031-0.163-0.049-0.247-0.082c-0.149-0.051-0.297-0.1-0.464-0.146c-0.082-0.018-0.198-0.051-0.296-0.084
		c-0.149-0.051-0.315-0.082-0.464-0.133c-0.116-0.031-0.231-0.064-0.349-0.1c-0.166-0.051-0.315-0.1-0.495-0.133
		c-0.117-0.033-0.248-0.064-0.365-0.098c-0.182-0.051-0.349-0.1-0.528-0.133c-0.132-0.035-0.265-0.084-0.413-0.115
		c-0.184-0.051-0.363-0.084-0.547-0.135c-0.146-0.031-0.299-0.064-0.462-0.115c-0.183-0.033-0.382-0.08-0.579-0.133
		c-0.165-0.031-0.314-0.064-0.479-0.098c-0.217-0.053-0.414-0.102-0.629-0.133c-0.035-0.018-0.051-0.018-0.051-0.018
		c9.857-2.1,11.479-4.035,11.661-4.318v-29.076c-3.423,1.703-9.495,3.406-20.097,4.963c-14.641,2.115-34.074,3.291-54.734,3.291
		c-20.659,0-40.096-1.176-54.734-3.291c-10.619-1.557-16.673-3.275-20.097-4.979v29.043c0.166,0.266,1.737,2.23,11.711,4.352
		c-0.032,0.016-0.083,0.031-0.131,0.031c-0.216,0.049-0.447,0.098-0.663,0.148c-0.148,0.033-0.298,0.066-0.445,0.1
		c-0.216,0.051-0.432,0.098-0.646,0.148c-0.132,0.033-0.265,0.066-0.397,0.1c-0.199,0.051-0.397,0.102-0.611,0.148
		c-0.116,0.018-0.25,0.049-0.364,0.084c-0.199,0.049-0.38,0.098-0.579,0.15c-0.1,0.029-0.214,0.061-0.314,0.08
		c-0.196,0.062-0.379,0.117-0.578,0.166c-0.082,0.033-0.166,0.049-0.265,0.064c-0.198,0.064-0.38,0.133-0.579,0.184
		c-0.065,0.018-0.132,0.033-0.182,0.049c-0.23,0.062-0.447,0.133-0.645,0.215c0,0-0.051,0-0.084,0.018
		c-0.461,0.148-0.893,0.299-1.272,0.445l0,0c-0.183,0.066-0.364,0.133-0.546,0.201c-0.033,0.016-0.067,0.031-0.1,0.049
		c-0.133,0.049-0.266,0.098-0.396,0.148c-0.033,0.016-0.066,0.049-0.116,0.049c-0.116,0.051-0.215,0.1-0.315,0.146
		c-0.049,0.018-0.099,0.033-0.131,0.053c-0.1,0.049-0.183,0.1-0.281,0.133c-0.033,0.016-0.066,0.033-0.116,0.062
		c-0.083,0.033-0.147,0.068-0.231,0.117c-0.033,0.018-0.065,0.033-0.115,0.051c-0.066,0.031-0.133,0.082-0.197,0.115
		c-0.034,0.018-0.067,0.031-0.102,0.047c-0.064,0.035-0.115,0.068-0.181,0.102c-0.017,0.033-0.05,0.051-0.083,0.066
		c-0.05,0.033-0.099,0.066-0.148,0.1c-0.033,0-0.049,0.016-0.066,0.033c-0.05,0.031-0.1,0.064-0.148,0.1
		c-0.017,0.018-0.033,0.033-0.05,0.033c-0.05,0.033-0.083,0.064-0.114,0.1c-0.018,0-0.035,0.016-0.051,0.031
		c-0.033,0.033-0.066,0.051-0.1,0.084c0,0-0.016,0.016-0.033,0.016c-0.033,0.033-0.066,0.068-0.1,0.084c0,0.018,0,0.018,0,0.018
		c-0.032,0.031-0.066,0.064-0.1,0.08c-0.016,0.033-0.033,0.051-0.066,0.084c0.562,0.646,3.986,3.523,22.313,6.02
		c14.242,1.953,32.867,3.027,52.451,3.027c19.585,0,38.228-1.074,52.452-3.027c18.311-2.496,21.75-5.373,22.312-6.02
		C2204.715-380.486,2204.664-380.553,2204.566-380.635L2204.566-380.635z M2191.945-389.254c0.033,0,0.082,0.018,0.115,0.018
		C2192.027-389.236,2191.979-389.254,2191.945-389.254z"/>
</g>
<g>
	<path fill="#2FBDB9" d="M1699.072,136.777h-138.045c-0.237,0.067-1.156,0.447-2.013,2.301c-1.678,3.634-3.351,7.408-4.466,9.952
		h150.708c-1.256-2.621-2.989-6.436-4.424-10.322C1700.248,137.128,1699.435,136.827,1699.072,136.777z"/>
	<path fill="#2FBDB9" d="M1630.008-59C1547.704-59,1481,7.705,1481,89.992C1481,172.277,1547.704,239,1630.008,239
		C1712.297,239,1779,172.277,1779,89.992C1779,7.705,1712.297-59,1630.008-59z M1558.168,18.507c0-1.404,1.139-2.544,2.543-2.544
		h138.58c1.404,0,2.542,1.14,2.542,2.544v100.014c0,1.405-1.138,2.542-2.542,2.542h-138.58c-1.404,0-2.543-1.137-2.543-2.542V18.507
		z M1716.39,155.377c-0.943,1.744-3.022,3.824-7.572,3.824h-157.634c-4.55,0-6.63-2.08-7.572-3.824
		c-1.429-2.644-0.77-5.587,0.401-7.627c0.619-1.435,3.189-7.352,5.769-12.936c2.799-6.059,7.691-8.208,11.031-8.208h138.363
		c3.711,0,8.858,2.246,11.197,8.578c2.086,5.646,4.978,11.352,5.508,12.384C1717.118,149.611,1717.861,152.654,1716.39,155.377z"/>
</g>
<g>
	<path fill="#2FBDB9" d="M1893.272,153.375c-82.29,0-149,66.709-149,149s66.71,149,149,149c82.291,0,149-66.709,149-149
		S1975.563,153.375,1893.272,153.375z M1835.546,235c0-2.629,2.131-4.76,4.76-4.76c0.036,0,0.072,0.003,0.108,0.005
		c1.347-17.999,16.412-32.237,34.752-32.237h35.924c18.344,0,33.413,14.245,34.755,32.252c0.13-0.012,0.262-0.02,0.395-0.02
		c2.631,0,4.761,2.131,4.761,4.76v18.392c0,1.976-1.204,3.671-2.919,4.391v15.948h-0.002v3.682h-5.498v-3.682h1.819v-15.948
		c-1.715-0.72-2.92-2.415-2.92-4.391v-9.195h-3.253v-13.972c0-14.062-11.398-25.463-25.461-25.463h-39.276
		c-14.063,0-25.463,11.4-25.463,25.463v13.972h-2.962v9.195c0,2.629-2.131,4.761-4.76,4.761s-4.76-2.132-4.76-4.761V235z
		 M1850.989,254.487c0-23.352,18.933-42.283,42.285-42.283c23.351,0,42.281,18.932,42.281,42.283
		c0,23.353-18.931,42.282-42.281,42.282C1869.922,296.77,1850.989,277.84,1850.989,254.487z M1906.893,380.133h-27.239
		l13.621-60.915L1906.893,380.133z M1968.287,374.974c-1.514,1.664-3.511,2.474-6.092,2.474l-0.105-0.007l-0.154,0.021
		c-0.021,0.003-0.061,0.003-0.111,0.003c-0.744,0-2.615-0.318-3.96-3.238c-0.265-0.888-0.983-2.974-2.912-2.974
		c-2.311,0-2.603,2.628-2.697,3.491l-0.016,0.122c-0.058,0.538-0.133,1.062-0.221,1.579c-0.021,0.108-0.042,0.216-0.063,0.323
		c-0.075,0.418-0.16,0.831-0.253,1.238c-0.014,0.074-0.036,0.151-0.053,0.229c-0.108,0.439-0.225,0.873-0.348,1.297
		c-0.009,0.033-0.017,0.063-0.029,0.097c-0.135,0.47-0.289,0.926-0.444,1.371l-0.002,0.003c-1.733,4.867-4.592,8.536-7.023,10.98
		c-9.747,9.791-26.387,14.758-49.45,14.758h-2.174c-23.063,0-39.7-4.967-49.447-14.758c-2.193-2.205-4.737-5.41-6.486-9.592
		c-0.001-0.001-0.001-0.003-0.001-0.006c-0.462-1.1-0.867-2.265-1.197-3.497c-0.013-0.059-0.026-0.117-0.042-0.175
		c-0.132-0.509-0.248-1.029-0.354-1.562c-0.028-0.144-0.055-0.288-0.083-0.434c-0.108-0.604-0.205-1.218-0.274-1.854l-0.012-0.122
		c-0.098-0.863-0.39-3.491-2.7-3.491c-1.926,0-2.647,2.086-2.912,2.974c-1.344,2.92-3.214,3.238-3.962,3.238
		c-0.052,0-0.088,0-0.061,0.004l-0.308-0.021c-2.582,0-4.572-0.807-6.089-2.466c-4.117-4.511-3.341-13.606-3.332-13.695l0.009-0.203
		c0-1.092,0.034-2.164,0.09-3.222c0.019-0.317,0.046-0.629,0.066-0.947c0.05-0.746,0.109-1.49,0.185-2.223
		c0.038-0.333,0.079-0.665,0.12-0.998c0.087-0.723,0.188-1.438,0.302-2.145c0.045-0.289,0.094-0.581,0.144-0.869
		c0.141-0.793,0.299-1.577,0.469-2.35c0.041-0.181,0.076-0.362,0.116-0.538c0.933-4.032,2.277-7.787,3.945-11.289
		c0-0.001,0-0.001,0.004-0.002c1.01-2.121,2.139-4.145,3.37-6.081c8.617-13.543,22.181-22.656,34.312-28.537
		c2.252-1.091,4.602-2.145,6.998-3.138c0.814,0.532,1.648,1.036,2.487,1.521c0.142,0.082,0.282,0.163,0.424,0.244
		c0.821,0.466,1.653,0.904,2.493,1.323c0.132,0.064,0.262,0.126,0.396,0.19c1.799,0.875,3.639,1.645,5.518,2.307
		c0.062,0.021,0.123,0.046,0.188,0.067c0.956,0.331,1.922,0.634,2.893,0.911c0.05,0.014,0.101,0.027,0.149,0.041
		c3.033,0.852,6.144,1.428,9.305,1.722l-17.824,79.731h45.541l-17.826-79.729c0,0,0.005-0.003,0.011-0.003
		c3.083-0.288,6.121-0.847,9.088-1.665c0.053-0.016,0.107-0.029,0.164-0.044c0.944-0.266,1.883-0.558,2.812-0.872
		c0.077-0.026,0.156-0.056,0.233-0.082c1.829-0.635,3.624-1.373,5.38-2.209c0.134-0.063,0.267-0.124,0.4-0.188
		c0.824-0.402,1.638-0.824,2.441-1.268c0.143-0.081,0.287-0.165,0.433-0.246c0.822-0.465,1.64-0.947,2.44-1.457
		c2.391,1.005,4.737,2.075,6.992,3.185c13.779,6.789,29.434,17.852,37.313,34.981c0,0.003,0,0.003,0.002,0.004
		c1.176,2.559,2.179,5.252,2.974,8.086c0.045,0.159,0.086,0.323,0.127,0.483c0.204,0.743,0.394,1.495,0.566,2.258
		c0.061,0.267,0.115,0.535,0.171,0.802c0.143,0.672,0.274,1.352,0.394,2.039c0.055,0.318,0.108,0.638,0.159,0.961
		c0.102,0.656,0.19,1.324,0.271,1.995c0.041,0.344,0.084,0.684,0.123,1.031c0.072,0.699,0.124,1.413,0.172,2.132
		c0.019,0.312,0.048,0.624,0.064,0.943c0.052,1.032,0.082,2.079,0.082,3.142l0.013,0.203
		C1971.854,363.817,1971.717,371.21,1968.287,374.974z"/>
</g>
<path fill="#31BDB9" stroke="#FFFFFF" stroke-width="6" stroke-miterlimit="10" d="M-406.599-821.512"/>
<g>
	<path fill="#2FBDB9" d="M1290,261c-82.291,0-149,66.709-149,149s66.709,149,149,149s149-66.709,149-149S1372.291,261,1290,261z
		 M1263.242,346.822c0.348-0.652,1.025-1.061,1.766-1.061h9.542l-0.001-29.703c0-0.53,0.211-1.039,0.586-1.414
		s0.884-0.586,1.414-0.586h21.871c0.529,0,1.039,0.211,1.414,0.586s0.586,0.884,0.586,1.414l-0.002,29.703h9.543
		c0.739,0,1.418,0.408,1.766,1.061c0.348,0.653,0.306,1.444-0.107,2.058l-22.477,33.326c-0.373,0.552-0.994,0.882-1.658,0.882
		c-0.666,0-1.287-0.33-1.658-0.882l-22.477-33.326C1262.936,348.267,1262.895,347.476,1263.242,346.822z M1261.629,405.744v20.412
		v2.189c0,1.209,0,2.189,0,2.189v53.406h-34.145v-53.406h19.551c0.807,0,1.548-0.443,1.929-1.154l0.554-1.035l12.111-22.604V405.744
		z M1346.204,483.941h-80.197v-53.406c0,0,0-0.98,0-2.189v-2.189v-23.686l24.797,25.875l1.452,1.516
		c0.412,0.43,0.982,0.674,1.58,0.674h52.368V483.941z M1294.77,426.156l-29.371-30.646c-0.017-0.018-0.033-0.031-0.051-0.049
		c-0.02-0.02-0.038-0.039-0.059-0.057c-0.02-0.02-0.041-0.037-0.062-0.055c-0.012-0.01-0.022-0.02-0.034-0.027
		c-0.012-0.01-0.022-0.02-0.034-0.029c-0.035-0.027-0.072-0.053-0.109-0.078c-0.012-0.008-0.023-0.016-0.035-0.023
		c-0.002-0.002-0.006-0.004-0.009-0.006c-0.009-0.006-0.018-0.01-0.026-0.016c-0.035-0.021-0.069-0.045-0.105-0.064
		c-0.018-0.01-0.036-0.018-0.054-0.027c-0.007-0.002-0.014-0.006-0.021-0.01c-0.014-0.006-0.025-0.014-0.039-0.02
		s-0.027-0.014-0.042-0.02c-0.021-0.01-0.042-0.018-0.062-0.025c-0.032-0.014-0.065-0.027-0.099-0.039
		c-0.008-0.004-0.016-0.008-0.023-0.01c-0.014-0.004-0.029-0.008-0.043-0.014c-0.035-0.01-0.068-0.021-0.104-0.029
		c-0.012-0.004-0.023-0.008-0.035-0.012c-0.012-0.002-0.022-0.004-0.033-0.006c-0.001,0-0.002-0.002-0.004-0.002
		c-0.01-0.002-0.02-0.004-0.029-0.008c-0.023-0.004-0.047-0.008-0.07-0.012s-0.047-0.01-0.07-0.012
		c-0.025-0.006-0.051-0.008-0.076-0.01c-0.017-0.002-0.033-0.006-0.049-0.006c-0.017-0.002-0.033-0.004-0.049-0.004
		c-0.035-0.004-0.07-0.004-0.105-0.006c-0.025,0-0.052,0-0.078,0c-0.008,0-0.017,0-0.024,0s-0.015,0.002-0.022,0.002
		c-0.035,0.002-0.07,0.002-0.105,0.006c-0.027,0.002-0.055,0.006-0.081,0.01c-0.003,0-0.005,0-0.008,0c-0.009,0-0.017,0-0.024,0.002
		c-0.005,0-0.01,0.002-0.014,0.002c-0.015,0.004-0.029,0.006-0.044,0.006c-0.027,0.006-0.054,0.012-0.081,0.018
		c-0.029,0.006-0.059,0.012-0.088,0.02c-0.026,0.006-0.053,0.014-0.079,0.02c-0.028,0.01-0.058,0.018-0.087,0.027
		c-0.025,0.01-0.051,0.018-0.076,0.027c-0.005,0.002-0.009,0.004-0.014,0.004c-0.008,0.004-0.018,0.008-0.025,0.01
		c-0.004,0.002-0.008,0.004-0.012,0.006c-0.012,0.004-0.023,0.01-0.035,0.014c-0.024,0.012-0.049,0.021-0.072,0.033
		c-0.029,0.014-0.058,0.027-0.086,0.043c0,0-0.002,0-0.003,0c-0.008,0.004-0.017,0.008-0.024,0.012
		c-0.014,0.008-0.025,0.016-0.039,0.023c-0.029,0.016-0.057,0.033-0.084,0.051c-0.021,0.012-0.042,0.025-0.062,0.039
		c-0.027,0.02-0.055,0.039-0.081,0.059c-0.02,0.014-0.039,0.027-0.058,0.043c-0.023,0.02-0.047,0.039-0.069,0.059
		c-0.01,0.008-0.021,0.016-0.03,0.025s-0.021,0.02-0.031,0.027c-0.029,0.027-0.056,0.057-0.083,0.084
		c-0.013,0.014-0.026,0.025-0.038,0.039c-0.004,0.004-0.008,0.01-0.013,0.014c-0.007,0.008-0.014,0.018-0.021,0.025
		c-0.026,0.029-0.053,0.059-0.076,0.09c-0.011,0.014-0.021,0.027-0.031,0.041c-0.008,0.012-0.016,0.021-0.023,0.033
		c-0.007,0.01-0.016,0.02-0.022,0.031c-0.009,0.012-0.017,0.023-0.024,0.037c-0.012,0.016-0.021,0.033-0.033,0.051
		c-0.02,0.033-0.04,0.066-0.059,0.1c-0.004,0.008-0.01,0.016-0.014,0.023l-16.164,30.166h-44.539l17.357-32.393h129.227
		l31.045,32.393H1294.77z"/>
</g>
<g>
	<path fill="#2FBDB9" d="M1081.547,181.263c-17.602,0-30.298-3.791-37.736-11.263c-1.674-1.683-3.615-4.129-4.951-7.32
		c0-0.001,0-0.003,0-0.005c-0.354-0.839-0.662-1.728-0.914-2.669c-0.01-0.044-0.02-0.089-0.031-0.133
		c-0.102-0.389-0.189-0.785-0.271-1.192c-0.022-0.109-0.043-0.219-0.063-0.33c-0.083-0.462-0.156-0.93-0.209-1.414l-0.01-0.094
		c-0.074-0.658-0.297-2.664-2.061-2.664c-1.471,0-2.021,1.591-2.223,2.269c-1.025,2.229-2.453,2.472-3.023,2.472
		c-0.039,0-0.066,0-0.047,0.004l-0.234-0.018c-1.971,0-3.49-0.615-4.646-1.881c-2.917-3.196-2.615-9.399-2.553-10.328
		c-0.12-0.019-0.233-0.05-0.365-0.05c-2.255,0-2.54,2.563-2.631,3.405l-0.016,0.119c-0.057,0.524-0.131,1.035-0.216,1.54
		c-0.021,0.105-0.042,0.21-0.062,0.314c-0.074,0.408-0.156,0.812-0.246,1.208c-0.016,0.072-0.037,0.147-0.053,0.224
		c-0.105,0.43-0.218,0.852-0.338,1.266c-0.01,0.032-0.019,0.062-0.029,0.095c-0.133,0.457-0.281,0.901-0.436,1.337l-0.001,0.003
		c-1.69,4.748-4.478,8.327-6.849,10.71c-9.51,9.551-25.739,14.396-48.235,14.396h-2.12c-22.498,0-38.725-4.845-48.232-14.396
		c-2.139-2.15-4.621-5.276-6.326-9.355c-0.002-0.002-0.002-0.003-0.002-0.006c-0.45-1.072-0.846-2.208-1.167-3.411
		c-0.013-0.057-0.026-0.114-0.041-0.17c-0.129-0.497-0.241-1.004-0.345-1.523c-0.029-0.141-0.055-0.281-0.082-0.423
		c-0.105-0.59-0.199-1.188-0.268-1.808l-0.011-0.119c-0.097-0.842-0.38-3.405-2.634-3.405c-0.113,0-0.209,0.029-0.314,0.043
		c0.168,2.027,0.021,7.509-2.547,10.327c-1.156,1.271-2.68,1.889-4.65,1.889l-0.082-0.005l-0.115,0.017
		c-0.018,0.002-0.047,0.002-0.085,0.002c-0.569,0-1.997-0.243-3.022-2.472c-0.203-0.678-0.752-2.269-2.223-2.269
		c-1.764,0-1.986,2.006-2.059,2.664l-0.012,0.094c-0.045,0.41-0.103,0.81-0.169,1.204c-0.016,0.083-0.032,0.165-0.048,0.247
		c-0.059,0.318-0.123,0.635-0.193,0.944c-0.012,0.057-0.028,0.115-0.041,0.175c-0.082,0.336-0.17,0.666-0.264,0.99
		c-0.008,0.026-0.015,0.049-0.023,0.074c-0.104,0.357-0.22,0.705-0.34,1.046l-0.002,0.003c-1.322,3.715-3.503,6.515-5.358,8.38
		c-7.44,7.472-20.138,11.263-37.739,11.263h-0.166C869.189,220.922,914.549,247,966,247c51.531,0,96.949-26.161,123.705-65.924
		c-2.086,0.123-4.252,0.187-6.498,0.187H1081.547z"/>
	<path fill="#2FBDB9" d="M822.116,100.003c0.108,0.062,0.216,0.125,0.324,0.188c0.626,0.354,1.261,0.689,1.903,1.009
		c0.1,0.05,0.199,0.097,0.301,0.146c1.373,0.668,2.777,1.255,4.213,1.761c0.046,0.016,0.094,0.034,0.143,0.052
		c0.729,0.252,1.467,0.483,2.208,0.695c0.038,0.011,0.075,0.021,0.114,0.031c2.313,0.649,4.689,1.09,7.101,1.313l-10.776,48.2
		c1.731,4.319,3.654,8.54,5.767,12.648h26.162l-13.604-60.847c0,0,0.004-0.002,0.008-0.002c2.354-0.22,4.672-0.646,6.936-1.271
		c0.041-0.013,0.083-0.022,0.126-0.034c0.722-0.202,1.437-0.424,2.146-0.665c0.06-0.021,0.119-0.042,0.178-0.062
		c1.396-0.484,2.767-1.047,4.105-1.686c0.104-0.048,0.205-0.096,0.307-0.145c0.629-0.307,1.25-0.629,1.862-0.967
		c0.11-0.062,0.22-0.126,0.331-0.188c0.627-0.354,1.251-0.722,1.863-1.111c1.824,0.767,3.613,1.583,5.335,2.43
		c6.841,3.371,14.278,8.134,20.304,14.642c0.455-1.152,0.934-2.288,1.459-3.389c0-0.002,0-0.002,0.003-0.003
		c0.984-2.068,2.085-4.043,3.287-5.931c8.405-13.21,21.634-22.099,33.466-27.837c2.199-1.063,4.49-2.091,6.828-3.06
		c0.794,0.519,1.607,1.011,2.425,1.483c0.14,0.081,0.276,0.159,0.415,0.239c0.801,0.454,1.611,0.882,2.432,1.289
		c0.129,0.064,0.256,0.124,0.387,0.187c1.754,0.854,3.549,1.604,5.382,2.251c0.06,0.02,0.12,0.043,0.183,0.064
		c0.934,0.324,1.875,0.619,2.822,0.89c0.049,0.014,0.098,0.026,0.146,0.04c2.957,0.83,5.992,1.393,9.075,1.68l-17.386,77.77h44.42
		l-17.387-77.769c0,0,0.005-0.001,0.01-0.001c3.008-0.281,5.971-0.826,8.864-1.624c0.054-0.017,0.106-0.029,0.161-0.044
		c0.922-0.259,1.836-0.543,2.742-0.851c0.076-0.025,0.152-0.054,0.227-0.08c1.785-0.618,3.537-1.338,5.248-2.153
		c0.131-0.062,0.262-0.123,0.392-0.186c0.804-0.393,1.597-0.804,2.38-1.235c0.141-0.079,0.281-0.161,0.423-0.24
		c0.802-0.453,1.601-0.923,2.382-1.422c2.33,0.981,4.619,2.023,6.818,3.106c13.441,6.623,28.711,17.413,36.396,34.122
		c0,0.002,0,0.002,0.003,0.004c0.409,0.89,0.788,1.802,1.151,2.725c6.164-6.669,13.834-11.516,20.875-14.93
		c1.719-0.832,3.512-1.636,5.34-2.395c0.623,0.406,1.259,0.792,1.898,1.161c0.109,0.062,0.216,0.125,0.324,0.188
		c0.627,0.354,1.262,0.689,1.902,1.009c0.102,0.05,0.201,0.097,0.303,0.146c1.373,0.668,2.777,1.255,4.211,1.761
		c0.047,0.016,0.094,0.034,0.144,0.052c0.729,0.252,1.468,0.483,2.208,0.695c0.038,0.011,0.076,0.021,0.115,0.031
		c2.312,0.649,4.688,1.09,7.1,1.313l-13.604,60.849h33.146c0.379-0.737,0.745-1.481,1.112-2.226l-13.106-58.621
		c0.001,0,0.005-0.002,0.009-0.002c2.354-0.22,4.672-0.646,6.936-1.271c0.041-0.013,0.082-0.022,0.125-0.034
		c0.722-0.202,1.438-0.424,2.146-0.665c0.059-0.021,0.119-0.042,0.177-0.062c1.397-0.484,2.767-1.047,4.106-1.686
		c0.102-0.048,0.205-0.096,0.307-0.145c0.629-0.307,1.248-0.629,1.861-0.967c0.11-0.062,0.22-0.126,0.33-0.188
		c0.629-0.354,1.252-0.722,1.863-1.111c1.824,0.767,3.615,1.583,5.336,2.43c1.664,0.82,3.365,1.731,5.072,2.721
		c0.084-2.063,0.139-4.135,0.139-6.219c0-7.617-0.574-15.101-1.678-22.41c-4.364,12.651-16.368,21.744-30.502,21.744
		c-17.822,0-32.271-14.447-32.271-32.268c0-17.821,14.449-32.269,32.271-32.269c7.806,0,14.964,2.772,20.545,7.386
		C1080.789-13.391,1027.787-51,966-51c-59.686,0-111.164,35.098-134.948,85.775c3.474-1.278,7.228-1.978,11.146-1.978
		c17.82,0,32.268,14.447,32.268,32.269c0,17.82-14.447,32.268-32.268,32.268c-9.914,0-18.779-4.475-24.699-11.51
		C817.173,89.841,817,93.9,817,98c0,0.747,0.018,1.49,0.028,2.234c1.048-0.477,2.108-0.944,3.19-1.393
		C820.84,99.248,821.477,99.634,822.116,100.003z M1093.213,160.955h-20.787l10.395-46.488L1093.213,160.955z M975.889,155.308
		h-26.569l13.286-59.417L975.889,155.308z M962.605-8.491c22.775,0,41.24,18.465,41.24,41.243c0,22.777-18.465,41.242-41.24,41.242
		c-22.779,0-41.246-18.465-41.246-41.242C921.359,9.974,939.826-8.491,962.605-8.491z M852.59,160.955h-20.787l10.395-46.488
		L852.59,160.955z"/>
</g>
<g>
	<path fill="#2FBDB9" d="M1233.441,721.385c-0.857,0.005-1.677,0.31-2.287,0.906c-0.609,0.597-0.951,1.413-0.951,2.266v9.068
		c0,1.719,1.369,3.126,3.088,3.171c17.24,0.457,31.175,14.318,31.725,31.557c0.055,1.712,1.457,3.072,3.17,3.072h9.076
		c0.855,0,1.674-0.346,2.271-0.958c0.598-0.613,0.922-1.44,0.899-2.295C1279.783,742.476,1259.143,721.926,1233.441,721.385z"/>
	<path fill="#2FBDB9" d="M1232.879,694.961c-0.873-0.005-1.67,0.314-2.274,0.912c-0.606,0.597-0.946,1.41-0.946,2.26v10.36
		c0,1.729,1.387,3.141,3.116,3.172c31.22,0.55,56.196,25.436,56.858,56.655c0.037,1.724,1.447,3.104,3.173,3.104h10.36
		c0.852,0,1.666-0.343,2.262-0.95c0.598-0.606,0.926-1.43,0.91-2.279C1305.604,727.74,1273.336,695.572,1232.879,694.961z"/>
	<path fill="#2FBDB9" d="M1244.166,750.001c-6.066,0-11.002,4.935-11.002,11c0,6.067,4.936,11.004,11.002,11.004
		s11.002-4.937,11.002-11.004C1255.168,754.936,1250.232,750.001,1244.166,750.001z"/>
	<path fill="#2FBDB9" d="M1258,601c-82.291,0-149,66.71-149,149c0,82.291,66.709,149,149,149c82.29,0,149-66.709,149-149
		C1407,667.71,1340.29,601,1258,601z M1258,813.567c-8.004,0-15.998-0.708-23.82-2.105c-8.898,15.306-21.498,30.384-22.069,31.063
		c-1.065,1.269-2.61,1.952-4.185,1.952c-0.822,0-1.652-0.185-2.426-0.57c-2.258-1.12-3.455-3.642-2.896-6.1
		c2.881-12.673,4.201-24.293,3.939-34.604c-32.354-14.041-52.293-40.091-52.293-68.656c0-43.574,46.542-79.024,103.75-79.024
		c57.207,0,103.749,35.45,103.749,79.024C1361.749,778.119,1315.207,813.567,1258,813.567z"/>
</g>
<g>
	<path fill="#2FBDB9" d="M150,1C67.709,1,1,67.709,1,150s66.709,149,149,149s149-66.709,149-149S232.291,1,150,1z M153.335,239.544
		c-13.341,0-26.71-3.075-38.665-8.892c-0.201-0.099-0.354-0.274-0.424-0.486c-0.068-0.212-0.05-0.444,0.056-0.642l12.661-23.987
		c0.207-0.389,0.682-0.547,1.08-0.362c7.862,3.682,16.607,5.628,25.292,5.628c32.889,0,59.646-26.757,59.646-59.646
		c0-22.157-12.185-42.369-31.8-52.745c-8.533-4.513-18.162-6.899-27.846-6.899c-32.888,0-59.645,26.756-59.645,59.645
		c0,1.139,0.926,2.063,2.063,2.063h23.084c0.332,0,0.633,0.202,0.762,0.51c0.127,0.31,0.057,0.664-0.18,0.9l-38.867,38.866
		c-0.309,0.31-0.857,0.31-1.167,0L40.52,154.631c-0.236-0.237-0.307-0.592-0.179-0.9c0.128-0.308,0.429-0.51,0.763-0.51h21.783
		c1.138,0,2.063-0.926,2.063-2.063c0-48.736,39.649-88.384,88.385-88.384c14.368,0,28.638,3.53,41.265,10.211
		c29.066,15.374,47.121,45.328,47.121,78.173C241.721,199.894,202.071,239.544,153.335,239.544z M145.322,153.53l2.836-46.322
		c0.025-0.436,0.386-0.775,0.823-0.775h7.585c0.436,0,0.797,0.341,0.823,0.776l2.445,40.85l27.359,30.772
		c0.29,0.327,0.276,0.824-0.032,1.132l-5.363,5.363c-0.16,0.16-0.373,0.241-0.583,0.241c-0.196,0-0.392-0.068-0.548-0.208
		l-35.071-31.162C145.406,154.029,145.305,153.783,145.322,153.53z"/>
</g>
<g>
	<path fill="#31BDB9" d="M1284.311-191.021h-44.617c-6.266,0-11.364,5.1-11.364,11.365v0.967c0,0.727,0.591,1.316,1.319,1.316h6.694
		c0.729,0,1.317-0.59,1.317-1.316v-0.967c0-1.121,0.912-2.031,2.033-2.031h44.617c1.118,0,2.028,0.91,2.028,2.031v0.967
		c0,0.727,0.591,1.316,1.319,1.316h6.695c0.729,0,1.318-0.59,1.318-1.316v-0.967
		C1295.672-185.922,1290.574-191.021,1284.311-191.021z"/>
	<path fill="#31BDB9" d="M1284.311-241.494h-44.617c-6.266,0-11.364,5.096-11.364,11.361v0.969c0,0.727,0.591,1.316,1.319,1.316
		h6.694c0.729,0,1.317-0.59,1.317-1.316v-0.969c0-1.119,0.912-2.031,2.033-2.031h44.617c1.118,0,2.028,0.912,2.028,2.031v0.969
		c0,0.727,0.591,1.316,1.319,1.316h6.695c0.729,0,1.318-0.59,1.318-1.316v-0.969
		C1295.672-236.398,1290.574-241.494,1284.311-241.494z"/>
	<path fill="#31BDB9" d="M1262-391c-82.29,0-149,66.709-149,149c0,82.29,66.71,149,149,149s149-66.71,149-149
		C1411-324.291,1344.29-391,1262-391z M1199.743-312.992l11.306-11.309c0.247-0.246,0.582-0.385,0.933-0.385h100.04
		c0.35,0,0.687,0.139,0.934,0.385l11.307,11.309c0.377,0.377,0.488,0.943,0.285,1.438c-0.204,0.492-0.684,0.814-1.219,0.814
		h-122.653c-0.534,0-1.015-0.322-1.218-0.814C1199.252-312.049,1199.365-312.615,1199.743-312.992z M1325.432-160.631
		c0,0.729-0.59,1.316-1.318,1.316h-124.227c-0.73,0-1.318-0.588-1.318-1.316v-43.781c0-0.729,0.588-1.316,1.318-1.316h124.227
		c0.729,0,1.318,0.588,1.318,1.316V-160.631z M1325.432-211.105c0,0.727-0.59,1.318-1.318,1.318h-124.227
		c-0.73,0-1.318-0.592-1.318-1.318v-43.783c0-0.725,0.588-1.316,1.318-1.316h124.227c0.729,0,1.318,0.592,1.318,1.316V-211.105z
		 M1325.432-261.586c0,0.729-0.59,1.318-1.318,1.318h-124.227c-0.73,0-1.318-0.59-1.318-1.318v-43.779
		c0-0.729,0.588-1.318,1.318-1.318h124.227c0.729,0,1.318,0.59,1.318,1.318V-261.586z"/>
	<path fill="#31BDB9" d="M1284.311-291.975h-44.617c-6.266,0-11.364,5.098-11.364,11.363v0.971c0,0.729,0.591,1.32,1.319,1.32h6.694
		c0.729,0,1.317-0.592,1.317-1.32v-0.971c0-1.117,0.912-2.029,2.033-2.029h44.617c1.118,0,2.028,0.912,2.028,2.029v0.971
		c0,0.729,0.591,1.32,1.319,1.32h6.695c0.729,0,1.318-0.592,1.318-1.32v-0.971C1295.672-286.877,1290.574-291.975,1284.311-291.975z
		"/>
</g>
<path fill="#2FBDB9" d="M482-451c-82.29,0-149,66.71-149,149s66.71,149,149,149s149-66.71,149-149S564.29-451,482-451z
	 M536.977-386.238c13.125,8.583,24.22,20.288,32.086,33.853c0.128,0.222,0.086,0.503-0.104,0.676
	c-7.105,6.491-14.69,12.133-22.545,16.767c-0.087,0.05-0.182,0.075-0.277,0.075c-0.115,0-0.229-0.036-0.326-0.108
	c-1.212-0.906-2.626-1.385-4.089-1.385c-0.275,0-0.552,0.039-0.846,0.081l-0.129,0.019c-0.222,0.031-0.441-0.077-0.551-0.272
	c-8.193-14.622-19.221-27.622-32.773-38.64c-0.175-0.142-0.244-0.376-0.175-0.591c0.35-1.078,0.52-2.058,0.52-2.996
	c0-0.24-0.032-0.482-0.067-0.737c-0.018-0.127-0.035-0.253-0.048-0.38c-0.027-0.263,0.138-0.508,0.392-0.581
	c13.098-3.74,23.523-5.279,28.572-5.864C536.742-386.338,536.869-386.308,536.977-386.238z M534.866-329.468
	c0.007,0.046,0.016,0.109,0.016,0.185c0,0.214-0.125,0.407-0.319,0.496c-9.972,4.52-20.592,7.702-31.568,9.462
	c-0.028,0.004-0.058,0.006-0.086,0.006c-0.184,0-0.357-0.093-0.459-0.251c-0.969-1.519-2.459-2.562-4.193-2.942
	c-0.224-0.048-0.393-0.231-0.424-0.457c-1.899-13.944-1.514-29.303,1.147-45.651c0.038-0.233,0.222-0.415,0.454-0.451
	c1.599-0.249,3.061-0.86,4.348-1.82c0.2-0.149,0.477-0.144,0.67,0.016c0.963,0.786,1.92,1.591,2.844,2.392
	c11.75,10.173,21.353,21.948,28.54,34.994c0.094,0.169,0.09,0.374-0.007,0.539c-0.642,1.092-0.966,2.251-0.966,3.449
	C534.863-329.494,534.864-329.481,534.866-329.468z M500.6-310.506c1.176-0.808,2.048-1.973,2.521-3.37
	c0.065-0.191,0.23-0.332,0.431-0.363c11.54-1.823,22.753-5.192,33.33-10.014c0.187-0.085,0.405-0.058,0.565,0.069
	c0.966,0.773,2.114,1.271,3.322,1.439c0.188,0.026,0.35,0.15,0.426,0.326c2.277,5.321,4.194,10.756,5.699,16.149
	c0.06,0.213-0.016,0.442-0.191,0.578c-1.625,1.254-2.629,3.075-2.823,5.128c-0.019,0.203-0.151,0.38-0.343,0.455
	c-9.854,3.888-18.857,8.616-26.764,14.054c-0.094,0.063-0.201,0.096-0.309,0.096c-0.105,0-0.211-0.031-0.304-0.093
	c-1.224-0.817-2.646-1.25-4.114-1.25c-0.576,0-1.175,0.087-1.884,0.275c-0.238,0.062-0.488-0.042-0.61-0.255
	c-0.927-1.607-1.736-3.106-2.473-4.584c-2.768-5.549-5.021-11.623-6.698-18.056C500.324-310.142,500.411-310.376,500.6-310.506z
	 M503.008-387.614c1.04-3.976,2.205-7.948,3.37-11.49c0.09-0.272,0.374-0.428,0.653-0.357c7.354,1.882,14.562,4.651,21.426,8.235
	c0.207,0.107,0.322,0.335,0.286,0.566s-0.216,0.413-0.446,0.453c-7.321,1.261-14.847,3.024-22.367,5.243
	c-0.051,0.014-0.103,0.022-0.154,0.022c-0.156,0-0.309-0.068-0.413-0.191c-0.659-0.767-1.374-1.401-2.123-1.887
	C503.042-387.147,502.948-387.387,503.008-387.614z M464.53-401.061c5.844-1.024,11.722-1.544,17.47-1.544
	c6.271,0,12.629,0.605,18.897,1.799c0.154,0.029,0.288,0.123,0.367,0.26c0.08,0.135,0.097,0.298,0.048,0.447
	c-1.191,3.598-2.307,7.346-3.314,11.142c-0.062,0.229-0.265,0.395-0.503,0.405c-1.989,0.088-3.88,0.768-5.468,1.967
	c-0.098,0.073-0.214,0.11-0.329,0.11c-0.1,0-0.198-0.027-0.286-0.082c-8.5-5.263-17.579-9.791-26.985-13.459
	c-0.228-0.089-0.369-0.318-0.345-0.562C464.106-400.82,464.289-401.018,464.53-401.061z M492.81-321.622
	c0.027,0.188-0.046,0.377-0.192,0.497c-0.926,0.763-1.627,1.754-2.029,2.864c-0.074,0.203-0.262,0.345-0.479,0.358
	c-2.856,0.176-5.779,0.266-8.688,0.266c-0.001,0-0.001,0-0.001,0c-7.599,0-15.465-0.608-23.382-1.809
	c-0.217-0.033-0.395-0.194-0.446-0.406c-2.129-8.517-5.054-17.193-8.693-25.792c-0.08-0.188-0.049-0.405,0.084-0.562
	c1.094-1.308,1.672-2.87,1.672-4.517c0-0.378-0.055-0.76-0.111-1.118c-0.032-0.197,0.048-0.396,0.207-0.518
	c5.452-4.173,11.255-8.025,17.248-11.452c6.506-3.722,13.533-7.112,20.883-10.076c0.248-0.1,0.531-0.007,0.669,0.222
	c0.951,1.561,2.323,2.826,3.968,3.657c0.213,0.107,0.331,0.339,0.292,0.574C491.02-352.394,490.683-336.307,492.81-321.622z
	 M407.256-291.938c-0.208-0.139-0.296-0.401-0.211-0.636c3.333-9.382,7.582-18.174,12.63-26.135
	c0.125-0.195,0.357-0.291,0.583-0.239c0.521,0.12,1.002,0.179,1.464,0.179c2.024,0,3.909-0.938,5.169-2.572
	c0.141-0.182,0.38-0.256,0.599-0.187c8.594,2.771,17.226,4.932,25.657,6.423c0.219,0.038,0.392,0.203,0.438,0.419
	c5.241,23.841,3.983,46.324-3.74,66.827c-0.075,0.202-0.264,0.34-0.479,0.353c-1.149,0.064-2.236,0.417-3.143,1.018
	c-0.091,0.061-0.196,0.091-0.301,0.091c-0.103,0-0.205-0.029-0.295-0.087c-14.045-9.077-26.338-20.687-36.539-34.506
	c-0.141-0.191-0.141-0.454,0-0.646c0.926-1.262,1.415-2.736,1.415-4.264C410.503-288.328,409.29-290.586,407.256-291.938z
	 M427.317-329.366c4.048-5.114,8.59-10.014,13.501-14.562c0.146-0.135,0.354-0.18,0.543-0.116c0.789,0.264,1.518,0.393,2.225,0.393
	c0.02,0,0.057-0.006,0.094-0.012c0.054-0.007,0.105-0.014,0.158-0.017c0.232-0.016,0.448,0.118,0.539,0.332
	c3.092,7.354,5.649,14.78,7.599,22.074c0.049,0.183,0.001,0.376-0.127,0.513c-0.104,0.112-0.249,0.174-0.399,0.174
	c-0.033,0-0.069-0.003-0.103-0.01c-7.583-1.458-15.302-3.46-22.94-5.95c-0.178-0.058-0.312-0.202-0.359-0.383
	c-0.166-0.65-0.424-1.259-0.766-1.811C427.16-328.936,427.174-329.185,427.317-329.366z M426.788-386.09
	c8.088-5.318,16.857-9.426,26.065-12.209c0.103-0.031,0.215-0.031,0.318,0.001c8.387,2.603,21.297,7.49,35.173,15.993
	c0.214,0.131,0.311,0.39,0.236,0.628c-0.271,0.86-0.418,1.688-0.451,2.535c-0.009,0.214-0.142,0.403-0.341,0.483
	c-14.648,5.905-27.935,13.361-39.487,22.161c-0.097,0.074-0.214,0.111-0.33,0.111c-0.11,0-0.221-0.034-0.315-0.101
	c-1.198-0.849-2.601-1.299-4.053-1.302c-0.206,0-0.394-0.116-0.486-0.299c-6.145-12.139-12.349-21.508-16.472-27.229
	c-0.087-0.12-0.121-0.271-0.094-0.417C426.579-385.88,426.664-386.008,426.788-386.09z M390.514-343.844
	c6.99-15.255,17.779-28.639,31.198-38.7c0.117-0.088,0.265-0.124,0.409-0.103c0.144,0.021,0.273,0.102,0.359,0.219
	c3.997,5.533,10.016,14.596,15.984,26.345c0.104,0.201,0.069,0.447-0.083,0.614c-1.203,1.316-1.866,3.002-1.866,4.746
	c0,1.037,0.242,2.063,0.72,3.052c0.104,0.215,0.056,0.473-0.118,0.635c-5.054,4.729-9.722,9.798-13.876,15.067
	c-0.122,0.155-0.317,0.231-0.511,0.202c-0.332-0.051-0.674-0.104-1.009-0.104c-1.385,0-2.724,0.447-3.87,1.291
	c-0.097,0.07-0.209,0.106-0.324,0.106c-0.067,0-0.133-0.013-0.197-0.037c-12.645-4.929-22.088-10.032-26.594-12.635
	C390.493-343.285,390.396-343.588,390.514-343.844z M388.094-338.091c0.057-0.147,0.175-0.264,0.324-0.317
	c0.15-0.054,0.315-0.038,0.452,0.039c4.434,2.526,13.704,7.483,25.979,12.316c0.216,0.084,0.354,0.296,0.345,0.528
	c-0.003,0.065-0.011,0.123-0.018,0.165c-0.003,0.014-0.006,0.028-0.007,0.043c0.001,1.033,0.267,2.062,0.793,3.053
	c0.093,0.175,0.084,0.385-0.022,0.551c-5.664,8.795-10.337,18.354-13.886,28.411c-0.062,0.177-0.213,0.31-0.396,0.35l-0.01,0.004
	c-0.041,0.014-0.081,0.026-0.123,0.035c-0.038,0.008-0.076,0.012-0.114,0.012c-0.188,0-0.369-0.099-0.469-0.267
	c-8.326-14.005-13.13-27.354-15.694-36.085c-0.028-0.099-0.029-0.204-0.001-0.303C386.079-332.474,387.036-335.346,388.094-338.091z
	 M393.882-255.571c-0.024,0.24-0.202,0.436-0.438,0.481c-0.036,0.007-0.07,0.01-0.104,0.01c-0.2,0-0.388-0.11-0.482-0.292
	c-3.697-7.055-6.546-14.533-8.471-22.229c-1.984-7.942-2.991-16.151-2.991-24.398c0-5.305,0.432-10.693,1.284-16.015
	c0.039-0.244,0.238-0.433,0.484-0.456c0.247-0.023,0.479,0.121,0.564,0.353c3.601,9.751,8.102,19.132,13.378,27.88
	c0.105,0.175,0.104,0.394-0.002,0.566c-0.711,1.162-1.087,2.466-1.087,3.772c0,1.864,0.718,3.641,2.025,5.003
	c0.13,0.136,0.181,0.328,0.135,0.511C396.174-272.483,394.729-264.134,393.882-255.571z M430.713-215.538
	c-0.096,0-0.192-0.024-0.28-0.077c-6.367-3.81-12.33-8.337-17.72-13.458c-5.384-5.114-10.205-10.828-14.333-16.985
	c-0.066-0.098-0.098-0.214-0.092-0.331c0.557-11.077,2.077-21.797,4.519-31.861c0.06-0.243,0.276-0.415,0.525-0.417
	c0.327-0.003,0.648-0.043,1.03-0.104c0.202-0.032,0.403,0.05,0.524,0.215c10.587,14.429,23.473,26.607,38.299,36.196
	c0.174,0.112,0.269,0.312,0.246,0.518c-0.009,0.08-0.021,0.16-0.031,0.24c-0.021,0.153-0.041,0.297-0.041,0.431
	c0,1.44,0.494,2.813,1.428,3.975c0.135,0.168,0.159,0.398,0.06,0.59c-3.668,7.161-8.281,14.182-13.71,20.868
	C431.029-215.608,430.872-215.538,430.713-215.538z M476.027-202.199c0.007,0.155-0.052,0.306-0.162,0.414
	c-0.104,0.1-0.24,0.154-0.382,0.154c-0.011,0-0.022,0-0.034,0c-13.882-0.894-27.172-4.571-39.5-10.934
	c-0.145-0.074-0.249-0.211-0.282-0.37c-0.034-0.159,0.005-0.327,0.106-0.454c5.405-6.754,10.029-13.864,13.746-21.134
	c0.09-0.176,0.267-0.29,0.463-0.297c1.25-0.05,2.433-0.447,3.422-1.15c0.169-0.12,0.39-0.134,0.572-0.037
	c5.963,3.179,12.263,6.016,18.721,8.436c0.202,0.075,0.341,0.264,0.353,0.48c0.13,2.335,1.388,4.473,3.363,5.718
	c0.177,0.112,0.275,0.316,0.25,0.525C475.963-214.969,475.749-208.694,476.027-202.199z M478.99-234.608
	c-1.581,0.278-2.994,1.064-4.087,2.272c-0.104,0.116-0.253,0.18-0.404,0.18c-0.063,0-0.128-0.011-0.189-0.033
	c-6.31-2.339-12.351-5.024-17.956-7.981c-0.19-0.101-0.304-0.305-0.289-0.52c0.006-0.084,0.017-0.166,0.027-0.248
	c0.013-0.089,0.023-0.165,0.023-0.233c0-1.474-0.515-2.873-1.488-4.048c-0.126-0.149-0.16-0.357-0.091-0.54
	c7.935-20.805,9.451-43.576,4.507-67.684c-0.037-0.173,0.015-0.353,0.136-0.482c0.12-0.128,0.296-0.19,0.472-0.166
	c7.471,1.034,14.847,1.56,21.925,1.56c2.776,0,5.742-0.101,9.068-0.306c0.204-0.013,0.396,0.088,0.501,0.262
	c0.843,1.398,2.172,2.434,3.74,2.916c0.181,0.055,0.32,0.201,0.368,0.384c1.792,6.954,4.239,13.566,7.273,19.652
	c0.854,1.719,1.831,3.498,3.07,5.6c0.099,0.167,0.101,0.375,0.006,0.544c-0.645,1.146-0.972,2.356-0.972,3.596
	c0,0.854,0.167,1.729,0.494,2.601c0.079,0.208,0.022,0.441-0.141,0.592c-12.553,11.573-21.154,25.601-25.563,41.691
	C479.365-234.798,479.197-234.646,478.99-234.608z M532.357-214.92c-7.504,4.349-15.528,7.707-23.853,9.981
	c-8.601,2.351-17.518,3.543-26.505,3.543c-0.053,0-0.104-0.002-0.156-0.004c-0.04-0.001-0.079-0.002-0.118-0.002
	c-0.29,0-0.53-0.229-0.544-0.519c-0.297-6.274-0.11-12.379,0.555-18.144c0.025-0.222,0.184-0.405,0.399-0.463
	c1.458-0.394,2.74-1.228,3.706-2.411c0.138-0.168,0.361-0.238,0.57-0.18c14.102,3.961,29.477,6.378,45.698,7.183
	c0.241,0.012,0.445,0.181,0.503,0.416C532.67-215.285,532.565-215.041,532.357-214.92z M549.039-227.17
	c-0.021,0.122-0.082,0.233-0.175,0.316c-2.35,2.093-4.837,4.105-7.39,5.983c-0.093,0.068-0.206,0.104-0.322,0.104
	c-0.002,0-0.005,0-0.008,0c-19.231-0.264-37.177-2.658-53.337-7.115c-0.214-0.06-0.371-0.242-0.396-0.462
	c-0.235-1.999-1.248-3.758-2.854-4.951c-0.18-0.135-0.259-0.364-0.2-0.58c4.133-15.206,12.132-28.434,23.774-39.314
	c0.167-0.155,0.413-0.191,0.616-0.089c1.074,0.536,2.184,0.809,3.3,0.809c0.427,0,0.848-0.063,1.205-0.124
	c0.191-0.033,0.387,0.038,0.512,0.188c8.832,10.592,20.365,19.252,34.281,25.745c0.148,0.068,0.258,0.2,0.298,0.359
	c0.38,1.499,1.278,2.81,2.529,3.69c0.162,0.114,0.249,0.307,0.228,0.503C550.553-237.021,549.859-231.995,549.039-227.17z
	 M552.059-254.115c-0.01,0.197-0.125,0.374-0.303,0.461c-0.805,0.396-1.511,0.953-2.099,1.653c-0.106,0.126-0.261,0.194-0.418,0.194
	c-0.08,0-0.16-0.018-0.236-0.055c-12.434-5.986-22.797-13.788-30.8-23.184c-0.16-0.188-0.174-0.458-0.035-0.661
	c0.848-1.234,1.295-2.679,1.295-4.179c0-0.556-0.082-1.14-0.259-1.837c-0.057-0.221,0.03-0.453,0.218-0.583
	c7.459-5.151,15.971-9.619,25.295-13.28c0.228-0.089,0.485-0.018,0.633,0.176c1.06,1.39,2.562,2.36,4.229,2.733
	c0.216,0.048,0.381,0.221,0.418,0.438C552.048-280.343,552.742-267.518,552.059-254.115z M552.196-307.495
	c-1.585-5.596-3.548-11.143-5.833-16.489c-0.089-0.207-0.041-0.447,0.121-0.605c1.35-1.308,2.093-3.052,2.093-4.913
	c0-0.058-0.009-0.124-0.02-0.202c-0.012-0.077-0.022-0.164-0.027-0.26c-0.011-0.202,0.092-0.396,0.268-0.498
	c7.771-4.573,15.317-10.122,22.432-16.494c0.127-0.114,0.299-0.161,0.466-0.13c0.167,0.032,0.31,0.141,0.386,0.293
	c5.624,11.289,9.028,23.405,10.117,36.011c0.025,0.29-0.18,0.548-0.468,0.587c-4.5,0.625-13.686,2.16-24.636,5.419
	c-0.052,0.016-0.103,0.022-0.155,0.022c-0.148,0-0.292-0.06-0.397-0.171c-1.066-1.131-2.424-1.886-3.927-2.183
	C552.414-307.148,552.252-307.298,552.196-307.495z M561.61-240.525c-1.522,1.97-3.068,3.833-4.597,5.54
	c-0.105,0.119-0.254,0.182-0.405,0.182c-0.078,0-0.155-0.016-0.229-0.051c-0.217-0.099-0.344-0.329-0.312-0.564
	c0.271-2.06,0.513-4.105,0.721-6.084c0.021-0.197,0.147-0.367,0.329-0.445c0.262-0.11,0.514-0.26,0.769-0.417
	c0.142-0.086,0.315-0.104,0.472-0.046c0.783,0.286,1.599,0.562,2.388,0.83l0.608,0.207c0.168,0.058,0.296,0.191,0.347,0.359
	S561.717-240.663,561.61-240.525z M565.442-245.78c-0.104,0.154-0.275,0.241-0.453,0.241c-0.055,0-0.112-0.01-0.167-0.026
	c-1.244-0.402-2.364-0.767-3.487-1.163c-0.234-0.081-0.383-0.312-0.362-0.559c0.007-0.09,0.02-0.179,0.031-0.266
	c0.016-0.116,0.031-0.226,0.031-0.324c0-2.22-1.136-4.259-3.037-5.455c-0.167-0.104-0.265-0.291-0.255-0.487
	c0.675-13.935-0.112-27.273-2.337-39.647c-0.036-0.202,0.044-0.408,0.209-0.532c1.872-1.411,2.948-3.545,2.952-5.854
	c0-0.244,0.161-0.457,0.396-0.523c9.647-2.738,17.811-4.11,22.96-4.777c0.153-0.021,0.307,0.026,0.425,0.127
	c0.116,0.1,0.187,0.246,0.189,0.399c0.008,0.273,0.017,0.545,0.025,0.817c0.021,0.59,0.041,1.201,0.041,1.811
	C582.604-281.853,576.669-262.413,565.442-245.78z"/>
</svg>
